<?xml version="1.0" encoding="UTF-8"?>
<svg xmlns="http://www.w3.org/2000/svg"
     viewBox="0 0 2339 1654"
     preserveAspectRatio="xMidYMid meet">
<path d="M0 0 C771.87 0 1543.74 0 2339 0 C2339 545.82 2339 1091.64 2339 1654 C1567.13 1654 795.26 1654 0 1654 C0 1108.18 0 562.36 0 0 Z " fill="#FEFEFE" transform="translate(0,0)"/>
<path d="M0 0 C15.51 0 31.02 0 47 0 C61.22676056 16.41549296 61.22676056 16.41549296 66.11328125 22.61328125 C69.68025184 27.12553597 73.35171144 31.55345343 77 36 C78.50028317 37.83310162 80.00028408 39.66643427 81.5 41.5 C82.2425 42.4075 82.985 43.315 83.75 44.25 C89 50.66666667 94.25 57.08333333 99.5 63.5 C100.24894531 64.41523437 100.99789062 65.33046875 101.76953125 66.2734375 C103.20499935 68.02817784 104.63993796 69.78335155 106.07421875 71.5390625 C110.70323818 77.2034079 115.34813906 82.85440553 120 88.5 C125.34685204 94.98905001 130.68056318 101.48844833 136 108 C137.49985696 109.83345036 138.9998594 111.66678171 140.5 113.5 C143.5 117.16666667 146.5 120.83333333 149.5 124.5 C150.23734375 125.40105469 150.9746875 126.30210937 151.734375 127.23046875 C153.28702172 129.12844551 154.83907534 131.02690757 156.390625 132.92578125 C157.16921875 133.87839844 157.9478125 134.83101562 158.75 135.8125 C159.44609375 136.66457031 160.1421875 137.51664063 160.859375 138.39453125 C163.22558862 141.27457592 165.61376693 144.13652031 168 147 C168.495 74.235 168.495 74.235 169 0 C187.48 0 205.96 0 225 0 C225 81.18 225 162.36 225 246 C209.49 246 193.98 246 178 246 C175.03 242.37 172.06 238.74 169 235 C166.66806516 232.165493 164.33513836 229.33186143 162 226.5 C157.45768276 220.98813799 152.92539134 215.4683894 148.40625 209.9375 C145.27823847 206.11888852 142.13915083 202.30945577 139 198.5 C134.45786868 192.98798441 129.92539199 187.4683902 125.40625 181.9375 C122.27823847 178.11888852 119.13915083 174.30945577 116 170.5 C111.45786868 164.98798441 106.92539199 159.4683902 102.40625 153.9375 C99.27823843 150.11888847 96.13913708 146.30946716 93 142.5 C88.34514725 136.85081674 83.69607556 131.19719659 79.06640625 125.52734375 C77.66096518 123.80840164 76.25197318 122.09235805 74.83984375 120.37890625 C68.77132505 113.00463925 62.90561516 105.51623748 57 98 C56.67 146.84 56.34 195.68 56 246 C37.52 246 19.04 246 0 246 C0 164.82 0 83.64 0 0 Z " fill="#383435" transform="translate(308,570)"/>
<path d="M0 0 C18.15 0 36.3 0 55 0 C55.04898438 7.90839844 55.09796875 15.81679688 55.1484375 23.96484375 C55.18383335 28.98243448 55.21979887 34.00000821 55.2578125 39.01757812 C55.31806183 46.97727259 55.37623032 54.93693344 55.421875 62.89672852 C55.45881707 69.31586725 55.50520147 75.73487537 55.55806351 82.15390205 C55.57656003 84.59980535 55.59168538 87.0457366 55.60334396 89.49168205 C55.62028747 92.92419615 55.64934248 96.35641419 55.68115234 99.78881836 C55.68331253 100.79439285 55.68547272 101.79996735 55.68769836 102.83601379 C55.82619962 114.57694694 58.56229399 125.64974102 66 135 C73.80322473 142.00494087 82.12579177 143.54317815 92.3125 143.4375 C93.84608154 143.42505249 93.84608154 143.42505249 95.41064453 143.41235352 C106.89913636 143.15429866 115.78498065 140.33925405 124 132 C135.96128274 117.19643225 135.60290596 101.18846678 135.609375 83.10546875 C135.62437592 80.70265092 135.64110704 78.29984333 135.65948486 75.89704895 C135.70295554 69.61224868 135.72311247 63.32758747 135.73822021 57.04266357 C135.76132629 49.48075168 135.81373241 41.91899157 135.86116028 34.35720062 C135.92974374 22.90476105 135.96138002 11.45275618 136 0 C154.15 0 172.3 0 191 0 C191 62.37 191 124.74 191 189 C173.84 189 156.68 189 139 189 C138.67 182.4 138.34 175.8 138 169 C135.69 171.31 133.38 173.62 131 176 C111.28616605 190.49694151 87.47490921 194.80324956 63.5625 191.25 C61.70116412 190.86662826 59.84664307 190.44883686 58 190 C56.88625 189.74347656 55.7725 189.48695313 54.625 189.22265625 C36.09502594 184.48857297 21.28743187 174.16893332 11 158 C9.04087331 154.42246431 7.44728333 150.81117943 6 147 C5.44699219 145.54787109 5.44699219 145.54787109 4.8828125 144.06640625 C0.92404294 132.95584497 -0.30336735 122.095744 -0.22705078 110.34667969 C-0.22734283 109.14523819 -0.22763489 107.94379669 -0.22793579 106.70594788 C-0.22679183 103.4525589 -0.21685158 100.19934831 -0.20278788 96.94599438 C-0.19017489 93.53075645 -0.18910178 90.11551398 -0.18673706 86.70025635 C-0.18055303 80.25137534 -0.16418448 73.80256319 -0.14403808 67.35371232 C-0.11937433 59.28139441 -0.10851681 51.20906501 -0.09765625 43.13671875 C-0.07825053 28.75775904 -0.0381742 14.3789493 0 0 Z " fill="#383435" transform="translate(587,627)"/>
<path d="M0 0 C17.82 0 35.64 0 54 0 C54 20.79 54 41.58 54 63 C69.51 63 85.02 63 101 63 C101 76.53 101 90.06 101 104 C85.49 104 69.98 104 54 104 C54.09093523 119.04115778 54.09093523 119.04115778 54.20898438 134.08203125 C54.26318428 140.22214416 54.31429908 146.36216821 54.34643555 152.50244141 C54.37256319 157.45631517 54.41303193 162.40988828 54.46318626 167.36357498 C54.47979121 169.24762845 54.49134497 171.13173385 54.49761391 173.01585007 C54.283333 188.63834999 54.283333 188.63834999 59.875 202.9375 C66.75338604 209.61358056 74.47693317 209.49901649 83.55859375 209.3671875 C89.61000147 209.06246845 94.71254432 206.85257725 100 204 C103.35186436 211.3196442 106.37335755 218.756244 109.3125 226.25 C109.77978516 227.40757812 110.24707031 228.56515625 110.72851562 229.7578125 C111.16486328 230.87414062 111.60121094 231.99046875 112.05078125 233.140625 C112.44950439 234.14641602 112.84822754 235.15220703 113.2590332 236.18847656 C114.07282533 239.27632834 114.02467395 240.9929266 113 244 C110.8125 245.4765625 110.8125 245.4765625 108 246.625 C106.9996875 247.03621094 105.999375 247.44742188 104.96875 247.87109375 C103.9890625 248.24363281 103.009375 248.61617187 102 249 C100.83984375 249.45052734 100.83984375 249.45052734 99.65625 249.91015625 C79.00018816 257.35681623 53.4139893 256.57373691 33.3605957 247.67260742 C18.7897213 240.70272412 9.48901299 229.30987974 3.26171875 214.72265625 C0.59074284 206.84203692 -0.29545794 199.24734454 -0.22705078 190.96044922 C-0.22734283 190.01289261 -0.22763489 189.065336 -0.22793579 188.08906555 C-0.22655571 184.99417579 -0.21105739 181.89953458 -0.1953125 178.8046875 C-0.19157766 176.64421724 -0.18873292 174.48374527 -0.18673706 172.32327271 C-0.17913766 166.66474651 -0.1595212 161.00632463 -0.1373291 155.34783936 C-0.11679076 149.56263642 -0.10771832 143.77741646 -0.09765625 137.9921875 C-0.07627156 126.66140537 -0.04111983 115.33072772 0 104 C-9.57 104 -19.14 104 -29 104 C-29 90.47 -29 76.94 -29 63 C-19.43 63 -9.86 63 0 63 C0 42.21 0 21.42 0 0 Z " fill="#373334" transform="translate(836,565)"/>
<path d="M0 0 C16.80829837 12.45623471 28.79048515 30.58562783 34.23144531 50.74609375 C34.52921875 51.78636719 34.82699219 52.82664062 35.13378906 53.8984375 C37.8721964 64.71325359 37.23144531 72.85753109 37.23144531 84.74609375 C-15.56855469 84.74609375 -68.36855469 84.74609375 -122.76855469 84.74609375 C-120.02634014 100.32483862 -120.02634014 100.32483862 -114.76855469 114.74609375 C-114.19814453 116.06867188 -114.19814453 116.06867188 -113.61621094 117.41796875 C-105.86663717 134.22175833 -91.49053559 146.44709273 -74.70996094 153.6796875 C-56.49973199 160.28180238 -38.66974497 158.45764419 -20.94042969 151.2578125 C-7.53724595 144.86984193 0.75569974 136.31170865 8.23144531 123.74609375 C10.1702942 124.02865467 12.10750493 124.32247305 14.04394531 124.62109375 C15.66236328 124.86472656 15.66236328 124.86472656 17.31347656 125.11328125 C20.23144531 125.74609375 20.23144531 125.74609375 23.23144531 127.74609375 C21.61016625 138.3028313 12.20242423 147.82786601 4.11425781 154.203125 C0.90631943 156.53135971 -2.39955017 158.6581428 -5.76855469 160.74609375 C-6.54457031 161.22820312 -7.32058594 161.7103125 -8.12011719 162.20703125 C-28.03180413 173.25344415 -53.07017959 175.95337282 -74.87402344 169.93359375 C-90.31502446 165.34069332 -103.3820533 157.0926425 -114.76855469 145.74609375 C-115.44144531 145.09640625 -116.11433594 144.44671875 -116.80761719 143.77734375 C-134.92619481 125.00909601 -142.34816036 98.72946656 -142.19042969 73.21899414 C-141.41687682 46.99707853 -129.23045256 22.38886027 -110.33496094 4.43359375 C-78.55318482 -22.28606039 -33.72527259 -23.91123689 0 0 Z " fill="#393637" transform="translate(2056.7685546875,647.25390625)"/>
<path d="M0 0 C0.69013184 0.29471191 1.38026367 0.58942383 2.09130859 0.89306641 C11.03647693 4.81946648 18.65726955 9.50051598 26 16 C26.969375 16.7734375 27.93875 17.546875 28.9375 18.34375 C45.4863683 32.13447358 55.49668093 56.06314961 58 77 C58 83.27 58 89.54 58 96 C5.2 96 -47.6 96 -102 96 C-99.07315112 117.95136661 -92.76283085 134.18107366 -77 150 C-76.09894531 150.93585938 -76.09894531 150.93585938 -75.1796875 151.890625 C-63.66365847 162.95797758 -47.21165768 169.02968827 -31.4375 169.4375 C-12.11631312 168.81423591 5.53219561 162.2418378 19.37890625 148.66796875 C23.30286788 144.42604338 26.37429233 140.14201086 29 135 C33.86896303 135.59619955 38.32790951 136.56976822 43 138 C43.6796875 139.6796875 43.6796875 139.6796875 44 142 C36.67259469 158.03830672 21.1690271 170.57033473 5 177 C1.83086474 178.14233744 -1.3581563 179.21082856 -4.5625 180.25 C-5.35414551 180.50869873 -6.14579102 180.76739746 -6.96142578 181.03393555 C-27.74394027 187.49103651 -50.67914872 184.59052386 -70 175 C-90.56481459 164.1780361 -105.15217545 147.23477893 -114 126 C-114.8353125 124.2984375 -114.8353125 124.2984375 -115.6875 122.5625 C-124.18698186 99.4924778 -123.34682966 71.36799356 -113.2421875 49.015625 C-109.31936021 40.70100085 -104.80440758 33.16410148 -99 26 C-98.07960938 24.83404297 -98.07960938 24.83404297 -97.140625 23.64453125 C-74.65501718 -3.3474897 -32.36104366 -13.98357108 0 0 Z " fill="#393637" transform="translate(1721,636)"/>
<path d="M0 0 C0.75658905 0.00068481 1.5131781 0.00136963 2.29269409 0.0020752 C14.95511282 0.04005641 14.95511282 0.04005641 17.375 1.25 C15.99918248 9.48240896 13.63571593 17.27829947 11 25.1875 C10.78424316 25.83529419 10.56848633 26.48308838 10.34619141 27.1505127 C-3.59727772 68.7244943 -25.87898065 113.94906607 -65.625 136.25 C-69.55399066 138.16658081 -73.4923423 139.827452 -77.625 141.25 C-78.68436768 141.637323 -78.68436768 141.637323 -79.76513672 142.0324707 C-86.63867095 144.36024686 -93.02671634 144.75143229 -100.25 144.6875 C-101.3848584 144.68427734 -102.5197168 144.68105469 -103.68896484 144.67773438 C-112.8289585 144.527068 -120.96657983 143.17973734 -129.625 140.25 C-129.05170117 135.04861608 -126.55840965 130.93456274 -124.0625 126.4375 C-123.58361328 125.57237793 -123.10472656 124.70725586 -122.61132812 123.81591797 C-111.2485947 103.69530416 -97.93536413 84.78369599 -82.12109375 67.93359375 C-79.99440178 65.64715027 -77.95427439 63.32012916 -75.9375 60.9375 C-72.48177822 56.96831012 -68.65511996 53.62228251 -64.625 50.25 C-63.75101563 49.48816406 -62.87703125 48.72632813 -61.9765625 47.94140625 C-49.27730786 37.02958021 -35.9537024 28.96686103 -20.625 22.25 C-27.36135411 23.38476643 -33.47404702 25.05621804 -39.75 27.75 C-40.56331787 28.09675781 -41.37663574 28.44351562 -42.21459961 28.80078125 C-57.8517273 35.69311204 -70.96967896 45.74812007 -83.3984375 57.3671875 C-85.625 59.25 -85.625 59.25 -87.7890625 60.2578125 C-90.16991001 61.54448328 -90.45638366 62.83891425 -91.625 65.25 C-93.18841071 66.85327911 -94.79984217 68.4101383 -96.4375 69.9375 C-103.74284766 76.99342659 -109.62947193 85.08414503 -115.625 93.25 C-116.06166992 93.83620117 -116.49833984 94.42240234 -116.94824219 95.02636719 C-125.13467087 106.01734559 -132.35110484 117.64392801 -139.625 129.25 C-142.77196792 126.24166326 -144.39158576 124.01595007 -145.8125 119.875 C-146.13605469 118.95976563 -146.45960937 118.04453125 -146.79296875 117.1015625 C-152.47478249 97.62867971 -148.13017142 77.42515821 -138.765625 59.98046875 C-135.82164913 54.72699456 -132.41311663 49.92724065 -128.625 45.25 C-128.02300781 44.48429687 -127.42101563 43.71859375 -126.80078125 42.9296875 C-111.26837385 24.2386983 -86.72192753 13.05578506 -63.625 7.25 C-62.41457031 6.91226562 -61.20414063 6.57453125 -59.95703125 6.2265625 C-40.41436783 0.95881884 -20.1411269 -0.02667028 0 0 Z " fill="#7CB659" transform="translate(1226.625,410.75)"/>
<path d="M0 0 C1.79244141 0.76183594 1.79244141 0.76183594 3.62109375 1.5390625 C12.36556468 5.58086615 19.68830307 10.8193943 27 17 C27.99773437 17.84304688 27.99773437 17.84304688 29.015625 18.703125 C44.26024588 32.80796114 56.0134369 56.44598075 57.17700195 77.14941406 C57.72333378 107.16066225 53.79562603 134.5796833 33 158 C32.40832031 158.68578125 31.81664062 159.3715625 31.20703125 160.078125 C18.06512545 174.31285452 -2.18437779 183.29290446 -21.375 184.265625 C-44.82276229 185.01210744 -64.14827572 176.96042395 -81.42578125 160.8515625 C-82.58058032 159.73960561 -83.73041278 158.62246564 -84.875 157.5 C-85.39843994 156.99065918 -85.92187988 156.48131836 -86.46118164 155.95654297 C-90.80728005 151.55569384 -93.42066519 147.36900221 -97 142 C-97.33 179.29 -97.66 216.58 -98 255 C-103.61 255 -109.22 255 -115 255 C-115 170.19 -115 85.38 -115 -2 C-109.72 -2 -104.44 -2 -99 -2 C-98.67 9.22 -98.34 20.44 -98 32 C-95.36 28.7 -92.72 25.4 -90 22 C-67.62355198 -2.652019 -31.31320362 -13.66268242 0 0 Z M-80 30 C-80.79019531 30.71027344 -81.58039063 31.42054688 -82.39453125 32.15234375 C-91.41474578 40.6639558 -97.9157709 50.86311341 -98.4675293 63.46923828 C-98.52087432 66.00261768 -98.55537879 68.53644156 -98.57421875 71.0703125 C-98.58897837 72.43781662 -98.60385799 73.80531946 -98.61885071 75.17282104 C-98.64572842 78.03225384 -98.65936082 80.89142934 -98.66577148 83.75097656 C-98.6744511 86.65718723 -98.7091192 89.56118117 -98.76831055 92.46679688 C-99.75005172 114.72606838 -99.75005172 114.72606838 -90 134 C-89.4649585 134.7307373 -88.92991699 135.46147461 -88.37866211 136.21435547 C-87.03656856 138.02530166 -85.63137616 139.69983273 -84.125 141.375 C-83.61453125 141.95386963 -83.1040625 142.53273926 -82.578125 143.12915039 C-69.90838199 157.18366164 -53.11860725 166.95630916 -34.0390625 168.2734375 C-16.20444692 168.85155153 -0.25305147 163.91369908 13.1875 151.75 C27.73124418 137.98340246 35.03860874 122.42648371 39 103 C39.19078125 102.195625 39.3815625 101.39125 39.578125 100.5625 C42.7953185 81.02102835 37.5373968 59.36098671 26.1875 43.25 C24.81391607 41.48248257 23.41806815 39.73203158 22 38 C21.32195312 37.14664063 20.64390625 36.29328125 19.9453125 35.4140625 C9.20599112 22.6291561 -7.52530132 12.44374729 -24.3046875 10.21484375 C-25.19414063 10.14394531 -26.08359375 10.07304688 -27 10 C-28.51980469 9.87818359 -28.51980469 9.87818359 -30.0703125 9.75390625 C-48.34694096 9.02724512 -66.71318861 17.77984363 -80 30 Z " fill="#383435" transform="translate(1311,636)"/>
<path d="M0 0 C1.13300537 0.00563965 2.26601074 0.0112793 3.43334961 0.01708984 C32.06705645 0.42692537 56.90823836 10.2309341 78.375 29.3125 C75.77858635 34.02298959 73.18636668 38.72553332 70.375 43.3125 C67.11353637 41.87832961 64.93102558 40.08904738 62.375 37.625 C54.61064609 30.66602478 46.18345298 26.33233921 36.375 23 C35.6641626 22.75749512 34.9533252 22.51499023 34.22094727 22.26513672 C23.21919668 18.74348146 12.24313113 17.96243317 0.76733398 17.99682617 C-1.42450021 17.99998129 -3.61497239 17.97644808 -5.80664062 17.95117188 C-24.81523875 17.86555477 -42.54647902 21.59345881 -56.59375 35.22265625 C-65.12892144 44.31840039 -68.0238191 55.44868511 -67.9375 67.6875 C-67.93186035 68.52385986 -67.9262207 69.36021973 -67.92041016 70.22192383 C-67.69977475 81.4448387 -64.86055859 89.26939693 -56.7265625 97.15234375 C-40.95258183 110.55143142 -16.94008061 113.87314343 2.62573242 118.19158936 C68.3877258 132.73873276 68.3877258 132.73873276 84.375 156.9375 C92.49818902 170.71582779 93.92859689 188.41172676 90.50390625 203.9921875 C85.74447926 221.65591262 74.58938089 233.31778298 59.13574219 242.33447266 C42.12967643 251.78071495 22.60724105 253.73881409 3.5 253.6875 C2.73487091 253.68695618 1.96974182 253.68641235 1.181427 253.68585205 C-12.06362506 253.64276414 -24.74684153 252.61084626 -37.625 249.3125 C-38.40504395 249.11414551 -39.18508789 248.91579102 -39.98876953 248.71142578 C-58.27253241 243.824611 -75.24938402 234.53907614 -89.625 222.3125 C-90.73995301 221.38169449 -91.85583526 220.4520009 -92.97265625 219.5234375 C-93.84792969 218.79382813 -94.72320313 218.06421875 -95.625 217.3125 C-94.25212658 213.61373909 -92.56144547 210.3610524 -90.5 207 C-89.96117187 206.11699219 -89.42234375 205.23398437 -88.8671875 204.32421875 C-88.45726562 203.66035156 -88.04734375 202.99648438 -87.625 202.3125 C-84.24368691 203.77571396 -82.10528589 205.66805897 -79.5 208.25 C-63.29167055 223.0302828 -42.87756908 231.14708604 -21.625 235.3125 C-20.73498291 235.4875708 -19.84496582 235.6626416 -18.92797852 235.84301758 C-14.95529813 236.40769083 -11.07791448 236.51243012 -7.0703125 236.55078125 C-5.84149857 236.56288887 -5.84149857 236.56288887 -4.58786011 236.57524109 C-2.85481849 236.58902737 -1.12175035 236.59977374 0.61132812 236.60766602 C2.35262226 236.61910494 4.09388362 236.63942604 5.83496094 236.66918945 C25.82246698 237.00992884 46.22853425 233.81109064 61.27734375 219.50390625 C69.42324523 210.94468207 71.55801816 201.05377613 71.625 189.625 C71.645625 188.76455078 71.66625 187.90410156 71.6875 187.01757812 C71.7584524 175.24834812 67.49501827 167.89906674 59.6328125 159.4375 C48.98558522 149.20153901 34.18227183 145.30954322 20.375 141.3125 C18.84045166 140.85061279 18.84045166 140.85061279 17.27490234 140.37939453 C8.68741928 137.83846424 0.05881645 135.8863996 -8.69696045 134.04980469 C-64.53271084 122.23540798 -64.53271084 122.23540798 -78.875 102 C-87.14476329 88.74141212 -89.95255334 72.7194074 -86.9375 57.37109375 C-82.62109011 39.83567859 -73.65366367 25.01704219 -58.2890625 15.17578125 C-47.52373774 8.73665334 -36.94801651 4.70353305 -24.625 2.3125 C-23.31668213 2.05545288 -23.31668213 2.05545288 -21.98193359 1.79321289 C-14.61063636 0.44074219 -7.48778984 -0.03949554 0 0 Z " fill="#3A3637" transform="translate(1064.625,564.6875)"/>
<path d="M0 0 C11.57073161 10.22251952 22.82289125 25.41063727 24.20483398 41.36474609 C24.30420189 44.01708544 24.32202658 46.65839398 24.3125 49.3125 C24.32861328 50.19873047 24.34472656 51.08496094 24.36132812 51.99804688 C24.36647554 59.05515593 23.17959915 65.64080171 20 72 C15.997517 70.665839 15.30143916 68.81965636 13 65.3125 C4.68833335 52.94900329 -4.70572753 41.75187452 -15 31 C-15.83273437 30.11441406 -16.66546875 29.22882813 -17.5234375 28.31640625 C-33.17489182 12.08245443 -53.9058283 -1.78332057 -76 -7 C-77.32 -7 -78.64 -7 -80 -7 C-79.30777344 -6.74347656 -78.61554687 -6.48695313 -77.90234375 -6.22265625 C-43.0119213 7.43011775 -16.96174754 36.75356948 3.5625 67.0625 C4.17097778 67.95473267 4.17097778 67.95473267 4.79174805 68.86499023 C7.3903101 72.78131957 9.26804806 76.65628667 11 81 C-4.64732395 87.25892958 -22.77354015 89.27473661 -38.64575195 82.6159668 C-49.80726768 77.5254351 -58.27542369 70.40983691 -67 62 C-67.63550781 61.42765625 -68.27101563 60.8553125 -68.92578125 60.265625 C-90.19337826 40.57152562 -105.82834051 7.16423795 -114 -20 C-114 -20.99 -114 -21.98 -114 -23 C-76.10108823 -29.68453247 -30.5054627 -25.64158862 0 0 Z " fill="#7DB659" transform="translate(1036,468)"/>
<path d="M0 0 C5.61 0 11.22 0 17 0 C17.33 37.95 17.66 75.9 18 115 C21.465 109.555 21.465 109.555 25 104 C38.03619636 87.42430225 56.05940734 75.00956878 77 71 C81.24078065 70.63509718 85.43376457 70.6230885 89.6875 70.6875 C90.76322266 70.68427734 91.83894531 70.68105469 92.94726562 70.67773438 C106.71767095 70.77049277 119.33511948 75.10951786 129.4375 84.6875 C149.33419091 106.34553732 149.46389223 135.60156412 149.29296875 163.2265625 C149.28736143 165.91369363 149.28294876 168.6008006 149.28010559 171.28793335 C149.27086605 177.58791128 149.24636485 183.88772874 149.21605712 190.18763673 C149.18225741 197.37290067 149.16596357 204.5581732 149.15097082 211.74349713 C149.11980567 226.4957479 149.06658617 241.24786578 149 256 C143.06 256 137.12 256 131 256 C130.99857498 254.53073563 130.99714996 253.06147125 130.99568176 251.54768372 C130.97892318 237.6178903 130.93617187 223.68835765 130.86790943 209.7587328 C130.83347294 202.59945691 130.8079323 195.44036928 130.80444336 188.28100586 C130.80137336 182.03013023 130.78048295 175.77959172 130.73947543 169.52884597 C130.71841379 166.2287453 130.7080653 162.92921531 130.71384621 159.62903786 C130.73965208 140.40194516 130.58309768 119.35260849 119 103 C118.52691406 102.3296875 118.05382813 101.659375 117.56640625 100.96875 C111.91829458 93.74406515 104.00779086 89.43380389 95 88 C77.00628413 86.32796355 60.80275384 89.83132369 46.35058594 101.31005859 C33.36123653 112.14942102 23.38660325 125.84019025 18 142 C17.8993308 143.56052736 17.8538235 145.12491971 17.84178162 146.68864441 C17.82709839 148.13365074 17.82709839 148.13365074 17.81211853 149.60784912 C17.80636307 150.66304749 17.8006076 151.71824585 17.79467773 152.80541992 C17.77982834 154.47393761 17.77982834 154.47393761 17.76467896 156.17616272 C17.73303614 159.86090958 17.70829543 163.54566935 17.68359375 167.23046875 C17.66302663 169.78209269 17.64203023 172.33371319 17.62062073 174.8853302 C17.57102484 180.92008922 17.52576599 186.95486577 17.48259836 192.98967296 C17.43321103 199.86025979 17.37829845 206.73079896 17.32291877 213.6013397 C17.20912559 227.73418227 17.10247674 241.86707125 17 256 C11.39 256 5.78 256 0 256 C0 171.52 0 87.04 0 0 Z " fill="#393536" transform="translate(1411,560)"/>
<path d="M0 0 C16.02083042 13.71341131 25.43272034 31.37663611 28.6875 52.1875 C28.6875 54.1675 28.6875 56.1475 28.6875 58.1875 C-18.8325 58.1875 -66.3525 58.1875 -115.3125 58.1875 C-114.14466973 43.0057065 -114.14466973 43.0057065 -111.6875 36.125 C-111.42243652 35.361875 -111.15737305 34.59875 -110.88427734 33.8125 C-103.90876301 14.51696648 -90.78017997 -0.26690856 -72.35302734 -9.19775391 C-48.47924687 -20.15279765 -20.68324391 -15.77535552 0 0 Z " fill="#FDFDFD" transform="translate(1733.3125,659.8125)"/>
<path d="M0 0 C16.7987822 14.91932757 24.78941472 34.22064331 26.48901367 56.31542969 C-21.03098633 56.31542969 -68.55098633 56.31542969 -117.51098633 56.31542969 C-115.42332946 33.35120414 -107.96325557 13.47181205 -89.98754883 -1.71630859 C-63.61856568 -22.80345579 -25.70238877 -21.88995593 0 0 Z " fill="#FDFDFD" transform="translate(2050.510986328125,661.6845703125)"/>
<path d="M0 0 C6.373125 -0.0825 12.74625 -0.165 19.3125 -0.25 C21.30063721 -0.28641602 23.28877441 -0.32283203 25.3371582 -0.36035156 C39.53796596 -0.51261766 50.15974315 1.46740871 60.68359375 11.625 C68.5721147 20.12335673 70.49741349 29.82230901 70.27734375 41.1015625 C69.56653201 51.09297257 65.19639566 59.20851829 57.89453125 65.94140625 C51.25567974 71.4147451 43.72889966 75.14197695 34.96582031 75.11352539 C34.17449707 75.11340454 33.38317383 75.11328369 32.56787109 75.11315918 C31.74625488 75.10804321 30.92463867 75.10292725 30.078125 75.09765625 C29.3154834 75.09664917 28.5528418 75.09564209 27.76708984 75.09460449 C24.92804452 75.0893867 22.08902069 75.07542544 19.25 75.0625 C12.8975 75.041875 6.545 75.02125 0 75 C0 50.25 0 25.5 0 0 Z " fill="#7FB75C" transform="translate(1856,935)"/>
<path d="M0 0 C0 5.61 0 11.22 0 17 C-2.51625 17.226875 -5.0325 17.45375 -7.625 17.6875 C-26.08496158 19.69196832 -42.9476164 28.3247644 -55.125 42.5 C-61.14999944 50.36563064 -68.08208311 61.70384007 -68.15821838 71.76457214 C-68.1680072 72.74473801 -68.17779602 73.72490387 -68.18788147 74.73477173 C-68.19363693 75.80867157 -68.1993924 76.88257141 -68.20532227 77.98901367 C-68.22017166 79.68679207 -68.22017166 79.68679207 -68.23532104 81.41886902 C-68.26696598 85.16854748 -68.29170541 88.91823863 -68.31640625 92.66796875 C-68.33697318 95.26443312 -68.35796958 97.86089412 -68.37937927 100.45735168 C-68.42897673 106.59835846 -68.47423509 112.73938325 -68.51740164 118.88043815 C-68.5667875 125.87194113 -68.62170062 132.86339727 -68.67708123 139.85485494 C-68.79087705 154.23652621 -68.89752526 168.61824391 -69 183 C-74.94 183 -80.88 183 -87 183 C-87 122.94 -87 62.88 -87 1 C-81.39 1 -75.78 1 -70 1 C-69.67 14.86 -69.34 28.72 -69 43 C-66.03 38.38 -63.06 33.76 -60 29 C-54.25118347 22.03664477 -48.28518468 16.31782711 -41 11 C-40.36707031 10.52820313 -39.73414063 10.05640625 -39.08203125 9.5703125 C-27.09602424 1.34111366 -14.07371539 -0.13153005 0 0 Z " fill="#3B3738" transform="translate(1904,633)"/>
<path d="M0 0 C8.19054152 5.86226576 14.66894571 14.49434333 16.49609375 24.52734375 C17.63120851 34.72918764 15.67928921 44.44728796 9.68359375 52.90234375 C3.20077457 60.71414086 -4.3300674 65.9129322 -14.50390625 67.52734375 C-26.50972725 68.49863696 -36.16845882 66.33695885 -45.5 58.5078125 C-53.41363869 50.68673099 -56.61623061 41.99405167 -56.87890625 31.02734375 C-56.61025592 19.82238611 -53.46747214 12.57733813 -45.6171875 4.61328125 C-32.60339344 -7.40338517 -15.48337372 -9.10644601 0 0 Z " fill="#FBFBFB" transform="translate(2125.50390625,547.47265625)"/>
<path d="M0 0 C6.249375 -0.061875 12.49875 -0.12375 18.9375 -0.1875 C20.89163818 -0.21481201 22.84577637 -0.24212402 24.85913086 -0.27026367 C26.4360289 -0.27903871 28.01293383 -0.28668023 29.58984375 -0.29296875 C30.38588013 -0.30831665 31.1819165 -0.32366455 32.0020752 -0.33947754 C40.10972542 -0.34319494 47.70579338 1.70714443 54 7 C60.04256942 15.08951028 60.60975913 22.01103686 60 32 C58.64667984 38.78791293 54.95930462 43.88621099 49.375 47.875 C47 49 47 49 44 49 C44.37286133 49.53890869 44.74572266 50.07781738 45.12988281 50.63305664 C46.83949817 53.10754182 48.54477183 55.58498969 50.25 58.0625 C51.12978516 59.33383789 51.12978516 59.33383789 52.02734375 60.63085938 C55.24796294 65.31704124 58.26642659 70.0132584 61 75 C56.55289997 76.37561687 52.24734417 77.2286194 48 75 C42.95417121 69.4983257 39.53573832 62.6200493 36.10058594 56.04125977 C35.16144331 54.06583598 35.16144331 54.06583598 34 53 C32.29436222 52.84259395 30.58272756 52.74906608 28.87109375 52.68359375 C27.93966553 52.64548584 27.0082373 52.60737793 26.04858398 52.56811523 C24.85692627 52.52501221 23.66526855 52.48190918 22.4375 52.4375 C18.663125 52.293125 14.88875 52.14875 11 52 C11 59.59 11 67.18 11 75 C7.37 75 3.74 75 0 75 C0 50.25 0 25.5 0 0 Z " fill="#7FB85C" transform="translate(1546,935)"/>
<path d="M0 0 C6.249375 -0.061875 12.49875 -0.12375 18.9375 -0.1875 C20.89163818 -0.21481201 22.84577637 -0.24212402 24.85913086 -0.27026367 C26.4360289 -0.27903871 28.01293383 -0.28668023 29.58984375 -0.29296875 C30.38588013 -0.30831665 31.1819165 -0.32366455 32.0020752 -0.33947754 C40.10972542 -0.34319494 47.70579338 1.70714443 54 7 C60.04256942 15.08951028 60.60975913 22.01103686 60 32 C58.64667984 38.78791293 54.95930462 43.88621099 49.375 47.875 C47 49 47 49 44 49 C44.37286133 49.53890869 44.74572266 50.07781738 45.12988281 50.63305664 C46.83949817 53.10754182 48.54477183 55.58498969 50.25 58.0625 C51.12978516 59.33383789 51.12978516 59.33383789 52.02734375 60.63085938 C55.24796294 65.31704124 58.26642659 70.0132584 61 75 C56.55289997 76.37561687 52.24734417 77.2286194 48 75 C42.95417121 69.4983257 39.53573832 62.6200493 36.10058594 56.04125977 C35.16144331 54.06583598 35.16144331 54.06583598 34 53 C32.29436222 52.84259395 30.58272756 52.74906608 28.87109375 52.68359375 C27.93966553 52.64548584 27.0082373 52.60737793 26.04858398 52.56811523 C24.85692627 52.52501221 23.66526855 52.48190918 22.4375 52.4375 C18.663125 52.293125 14.88875 52.14875 11 52 C11 59.59 11 67.18 11 75 C7.37 75 3.74 75 0 75 C0 50.25 0 25.5 0 0 Z " fill="#7FB85C" transform="translate(906,935)"/>
<path d="M0 0 C9.0646875 -0.12375 9.0646875 -0.12375 18.3125 -0.25 C20.19622314 -0.28641602 22.07994629 -0.32283203 24.02075195 -0.36035156 C34.24141502 -0.47540418 43.6187346 -0.35081033 51.9375 6.375 C58.70677231 14.99043748 59.81289817 21.14200304 59 32 C57.66538688 38.03791837 55.25732061 42.97377944 50.17285156 46.65136719 C41.63576996 51.95011312 33.13375618 52.53675201 23.3125 52.25 C22.12205078 52.23195313 20.93160156 52.21390625 19.70507812 52.1953125 C16.80302958 52.14869325 13.90140216 52.07697161 11 52 C11 59.59 11 67.18 11 75 C7.37 75 3.74 75 0 75 C0 50.25 0 25.5 0 0 Z " fill="#7FB75C" transform="translate(1405,935)"/>
<path d="M0 0 C9.0646875 -0.12375 9.0646875 -0.12375 18.3125 -0.25 C20.19622314 -0.28641602 22.07994629 -0.32283203 24.02075195 -0.36035156 C34.24141502 -0.47540418 43.6187346 -0.35081033 51.9375 6.375 C58.70677231 14.99043748 59.81289817 21.14200304 59 32 C57.66538688 38.03791837 55.25732061 42.97377944 50.17285156 46.65136719 C41.63576996 51.95011312 33.13375618 52.53675201 23.3125 52.25 C22.12205078 52.23195313 20.93160156 52.21390625 19.70507812 52.1953125 C16.80302958 52.14869325 13.90140216 52.07697161 11 52 C11 59.59 11 67.18 11 75 C7.37 75 3.74 75 0 75 C0 50.25 0 25.5 0 0 Z " fill="#7FB75C" transform="translate(679,935)"/>
<path d="M0 0 C29.94285714 0 29.94285714 0 39.3125 6.1875 C45.77373151 12.94925391 48.35617663 20.0613536 48.20703125 29.28125 C47.6240044 36.93760263 45.2806272 42.73015294 39.97265625 48.30859375 C28.33584475 58.28629549 15.56332337 55 0 55 C0 36.85 0 18.7 0 0 Z " fill="#FDFEFD" transform="translate(1867,945)"/>
<path d="M0 0 C7.95178849 5.96384137 13.48957943 13.9709 15.390625 23.79296875 C16.31557732 36.54518027 14.71914675 46.76723006 6.3046875 56.79296875 C-1.863536 65.32792882 -11.82018492 69.82547549 -23.609375 70.10546875 C-34.89751408 69.97777487 -44.52728232 66.79598029 -52.609375 58.79296875 C-60.89538151 49.93040115 -64.28566424 41.21779833 -64.14599609 29.18920898 C-63.66498512 18.48967662 -59.40514508 10.55970103 -51.99609375 2.91796875 C-37.17272596 -10.27992335 -16.32182366 -10.39361412 0 0 Z M-47.609375 13.79296875 C-52.46345617 21.44694022 -53.52040195 28.80553431 -52.609375 37.79296875 C-51.4014323 41.47193116 -49.72925416 44.56323596 -47.609375 47.79296875 C-47.05056641 48.67082031 -47.05056641 48.67082031 -46.48046875 49.56640625 C-42.59697814 54.89774877 -36.06169075 58.58393062 -29.609375 59.79296875 C-20.5541967 60.67534235 -12.65787458 59.0824965 -5.296875 53.54296875 C1.01953289 47.07966766 4.32530289 40.08519377 4.765625 30.98046875 C4.57545241 23.15962116 1.54951937 16.06359966 -3.765625 10.328125 C-10.49819018 4.72240865 -18.27813158 2.39287694 -26.890625 2.51953125 C-35.20175653 3.35542092 -42.16869338 7.5606868 -47.609375 13.79296875 Z " fill="#80B85D" transform="translate(1826.609375,941.20703125)"/>
<path d="M0 0 C7.95178849 5.96384137 13.48957943 13.9709 15.390625 23.79296875 C16.31557732 36.54518027 14.71914675 46.76723006 6.3046875 56.79296875 C-1.863536 65.32792882 -11.82018492 69.82547549 -23.609375 70.10546875 C-34.89751408 69.97777487 -44.52728232 66.79598029 -52.609375 58.79296875 C-60.89538151 49.93040115 -64.28566424 41.21779833 -64.14599609 29.18920898 C-63.66498512 18.48967662 -59.40514508 10.55970103 -51.99609375 2.91796875 C-37.17272596 -10.27992335 -16.32182366 -10.39361412 0 0 Z M-47.609375 13.79296875 C-52.46345617 21.44694022 -53.52040195 28.80553431 -52.609375 37.79296875 C-51.4014323 41.47193116 -49.72925416 44.56323596 -47.609375 47.79296875 C-47.05056641 48.67082031 -47.05056641 48.67082031 -46.48046875 49.56640625 C-42.59697814 54.89774877 -36.06169075 58.58393062 -29.609375 59.79296875 C-20.5541967 60.67534235 -12.65787458 59.0824965 -5.296875 53.54296875 C1.01953289 47.07966766 4.32530289 40.08519377 4.765625 30.98046875 C4.57545241 23.15962116 1.54951937 16.06359966 -3.765625 10.328125 C-10.49819018 4.72240865 -18.27813158 2.39287694 -26.890625 2.51953125 C-35.20175653 3.35542092 -42.16869338 7.5606868 -47.609375 13.79296875 Z " fill="#7FB85D" transform="translate(1742.609375,941.20703125)"/>
<path d="M0 0 C7.95178849 5.96384137 13.48957943 13.9709 15.390625 23.79296875 C16.31557732 36.54518027 14.71914675 46.76723006 6.3046875 56.79296875 C-1.863536 65.32792882 -11.82018492 69.82547549 -23.609375 70.10546875 C-34.89751408 69.97777487 -44.52728232 66.79598029 -52.609375 58.79296875 C-60.89538151 49.93040115 -64.28566424 41.21779833 -64.14599609 29.18920898 C-63.66498512 18.48967662 -59.40514508 10.55970103 -51.99609375 2.91796875 C-37.17272596 -10.27992335 -16.32182366 -10.39361412 0 0 Z M-47.609375 13.79296875 C-52.46345617 21.44694022 -53.52040195 28.80553431 -52.609375 37.79296875 C-51.4014323 41.47193116 -49.72925416 44.56323596 -47.609375 47.79296875 C-47.05056641 48.67082031 -47.05056641 48.67082031 -46.48046875 49.56640625 C-42.59697814 54.89774877 -36.06169075 58.58393062 -29.609375 59.79296875 C-20.5541967 60.67534235 -12.65787458 59.0824965 -5.296875 53.54296875 C1.01953289 47.07966766 4.32530289 40.08519377 4.765625 30.98046875 C4.57545241 23.15962116 1.54951937 16.06359966 -3.765625 10.328125 C-10.49819018 4.72240865 -18.27813158 2.39287694 -26.890625 2.51953125 C-35.20175653 3.35542092 -42.16869338 7.5606868 -47.609375 13.79296875 Z " fill="#7FB85D" transform="translate(1138.609375,941.20703125)"/>
<path d="M0 0 C3.63 0 7.26 0 11 0 C11 10.89 11 21.78 11 33 C24.86 33 38.72 33 53 33 C53 22.11 53 11.22 53 0 C56.96 0 60.92 0 65 0 C65 24.75 65 49.5 65 75 C61.04 75 57.08 75 53 75 C53 64.44 53 53.88 53 43 C39.14 43 25.28 43 11 43 C11 53.56 11 64.12 11 75 C7.37 75 3.74 75 0 75 C0 50.25 0 25.5 0 0 Z " fill="#81B95F" transform="translate(751,935)"/>
<path d="M0 0 C3.63 0 7.26 0 11 0 C11 10.89 11 21.78 11 33 C24.86 33 38.72 33 53 33 C53 22.11 53 11.22 53 0 C56.96 0 60.92 0 65 0 C65 24.75 65 49.5 65 75 C61.04 75 57.08 75 53 75 C53 64.44 53 53.88 53 43 C39.14 43 25.28 43 11 43 C11 53.56 11 64.12 11 75 C7.37 75 3.74 75 0 75 C0 50.25 0 25.5 0 0 Z " fill="#81B95F" transform="translate(430,935)"/>
<path d="M0 0 C17.49 0 34.98 0 53 0 C53 3.3 53 6.6 53 10 C39.14 10 25.28 10 11 10 C11 17.26 11 24.52 11 32 C23.54 32 36.08 32 49 32 C49 35.3 49 38.6 49 42 C36.46 42 23.92 42 11 42 C11 49.59 11 57.18 11 65 C25.52 65 40.04 65 55 65 C55 68.3 55 71.6 55 75 C36.85 75 18.7 75 0 75 C0 50.25 0 25.5 0 0 Z " fill="#80B85D" transform="translate(1476,935)"/>
<path d="M0 0 C17.49 0 34.98 0 53 0 C53 3.3 53 6.6 53 10 C39.14 10 25.28 10 11 10 C11 17.26 11 24.52 11 32 C23.54 32 36.08 32 49 32 C49 35.3 49 38.6 49 42 C36.46 42 23.92 42 11 42 C11 49.59 11 57.18 11 65 C25.52 65 40.04 65 55 65 C55 68.3 55 71.6 55 75 C36.85 75 18.7 75 0 75 C0 50.25 0 25.5 0 0 Z " fill="#80B85D" transform="translate(983,935)"/>
<path d="M0 0 C17.49 0 34.98 0 53 0 C53 3.3 53 6.6 53 10 C39.14 10 25.28 10 11 10 C11 17.26 11 24.52 11 32 C23.54 32 36.08 32 49 32 C49 35.3 49 38.6 49 42 C36.46 42 23.92 42 11 42 C11 49.59 11 57.18 11 65 C25.52 65 40.04 65 55 65 C55 68.3 55 71.6 55 75 C36.85 75 18.7 75 0 75 C0 50.25 0 25.5 0 0 Z " fill="#80B85D" transform="translate(836,935)"/>
<path d="M0 0 C17.49 0 34.98 0 53 0 C53 3.3 53 6.6 53 10 C39.14 10 25.28 10 11 10 C11 17.26 11 24.52 11 32 C23.54 32 36.08 32 49 32 C49 35.3 49 38.6 49 42 C36.46 42 23.92 42 11 42 C11 49.59 11 57.18 11 65 C25.52 65 40.04 65 55 65 C55 68.3 55 71.6 55 75 C36.85 75 18.7 75 0 75 C0 50.25 0 25.5 0 0 Z " fill="#80B85D" transform="translate(515,935)"/>
<path d="M0 0 C-1.1094072 3.48670834 -2.26337666 6.77484237 -4 10 C-4.639375 9.731875 -5.27875 9.46375 -5.9375 9.1875 C-6.948125 8.795625 -7.95875 8.40375 -9 8 C-9.59683594 7.73574219 -10.19367188 7.47148438 -10.80859375 7.19921875 C-17.90120262 4.37021975 -25.46916704 4.13105774 -33 5 C-36.7259662 6.75462505 -36.7259662 6.75462505 -39 10 C-39.14375422 13.37822416 -39.07536348 15.77390955 -38 19 C-34.46385826 21.24710485 -30.2955953 22.43252114 -26.375 23.875 C-24.93605782 24.41368843 -23.49725545 24.95275044 -22.05859375 25.4921875 C-19.70260815 26.37220619 -17.34403558 27.23191516 -14.97265625 28.0703125 C-7.91549226 30.65830176 -2.86615798 33.7492732 0.9375 40.375 C3.14042282 47.89085434 2.37512824 52.85452171 -1.3125 59.6640625 C-5.38596865 65.3027992 -11.41817591 68.19900336 -18 70 C-31.62028151 71.08579032 -43.04392999 68.88749181 -54.125 60.6875 C-54.74375 60.130625 -55.3625 59.57375 -56 59 C-55.43454163 55.04179141 -54.19097652 52.3340947 -52 49 C-48.35396139 50.78581483 -44.84179591 52.77024512 -41.31640625 54.78125 C-36.21243834 57.4666429 -32.3884866 58.29489883 -26.5625 58.3125 C-24.64630859 58.33763672 -24.64630859 58.33763672 -22.69140625 58.36328125 C-18.75961766 57.97634333 -16.34082063 57.07100646 -13 55 C-11.85636888 52.71273777 -11.73498068 51.17147573 -11.625 48.625 C-11.57601563 47.85414063 -11.52703125 47.08328125 -11.4765625 46.2890625 C-12.2541406 42.88860901 -14.1957401 41.97778199 -17 40 C-19.76943017 38.7484701 -19.76943017 38.7484701 -22.74609375 37.81640625 C-24.37321289 37.26049805 -24.37321289 37.26049805 -26.03320312 36.69335938 C-28.29804891 35.94100957 -30.56367313 35.19099902 -32.83007812 34.44335938 C-40.0763694 31.96198842 -45.28258294 29.8418655 -49.8125 23.4375 C-52.37329735 18.1811265 -53.1585669 12.47570069 -51.28125 6.84375 C-48.17510268 0.13046386 -43.70403493 -3.00458014 -37 -6 C-24.71939575 -10.07480004 -10.55305951 -6.65301578 0 0 Z " fill="#80B85D" transform="translate(1989,941)"/>
<path d="M0 0 C-1.1094072 3.48670834 -2.26337666 6.77484237 -4 10 C-4.639375 9.731875 -5.27875 9.46375 -5.9375 9.1875 C-6.948125 8.795625 -7.95875 8.40375 -9 8 C-9.59683594 7.73574219 -10.19367188 7.47148438 -10.80859375 7.19921875 C-17.90120262 4.37021975 -25.46916704 4.13105774 -33 5 C-36.7259662 6.75462505 -36.7259662 6.75462505 -39 10 C-39.14375422 13.37822416 -39.07536348 15.77390955 -38 19 C-34.46385826 21.24710485 -30.2955953 22.43252114 -26.375 23.875 C-24.93605782 24.41368843 -23.49725545 24.95275044 -22.05859375 25.4921875 C-19.70260815 26.37220619 -17.34403558 27.23191516 -14.97265625 28.0703125 C-7.91549226 30.65830176 -2.86615798 33.7492732 0.9375 40.375 C3.14042282 47.89085434 2.37512824 52.85452171 -1.3125 59.6640625 C-5.38596865 65.3027992 -11.41817591 68.19900336 -18 70 C-31.62028151 71.08579032 -43.04392999 68.88749181 -54.125 60.6875 C-54.74375 60.130625 -55.3625 59.57375 -56 59 C-55.43454163 55.04179141 -54.19097652 52.3340947 -52 49 C-48.35396139 50.78581483 -44.84179591 52.77024512 -41.31640625 54.78125 C-36.21243834 57.4666429 -32.3884866 58.29489883 -26.5625 58.3125 C-24.64630859 58.33763672 -24.64630859 58.33763672 -22.69140625 58.36328125 C-18.75961766 57.97634333 -16.34082063 57.07100646 -13 55 C-11.85636888 52.71273777 -11.73498068 51.17147573 -11.625 48.625 C-11.57601563 47.85414063 -11.52703125 47.08328125 -11.4765625 46.2890625 C-12.2541406 42.88860901 -14.1957401 41.97778199 -17 40 C-19.76943017 38.7484701 -19.76943017 38.7484701 -22.74609375 37.81640625 C-24.37321289 37.26049805 -24.37321289 37.26049805 -26.03320312 36.69335938 C-28.29804891 35.94100957 -30.56367313 35.19099902 -32.83007812 34.44335938 C-40.0763694 31.96198842 -45.28258294 29.8418655 -49.8125 23.4375 C-52.37329735 18.1811265 -53.1585669 12.47570069 -51.28125 6.84375 C-48.17510268 0.13046386 -43.70403493 -3.00458014 -37 -6 C-24.71939575 -10.07480004 -10.55305951 -6.65301578 0 0 Z " fill="#80B85D" transform="translate(1306,941)"/>
<path d="M0 0 C-1.1094072 3.48670834 -2.26337666 6.77484237 -4 10 C-4.639375 9.731875 -5.27875 9.46375 -5.9375 9.1875 C-6.948125 8.795625 -7.95875 8.40375 -9 8 C-9.59683594 7.73574219 -10.19367187 7.47148438 -10.80859375 7.19921875 C-17.90120262 4.37021975 -25.46916704 4.13105774 -33 5 C-36.7259662 6.75462505 -36.7259662 6.75462505 -39 10 C-39.14375422 13.37822416 -39.07536348 15.77390955 -38 19 C-34.46385826 21.24710485 -30.2955953 22.43252114 -26.375 23.875 C-24.93605782 24.41368843 -23.49725545 24.95275044 -22.05859375 25.4921875 C-19.70260815 26.37220619 -17.34403558 27.23191516 -14.97265625 28.0703125 C-7.91549226 30.65830176 -2.86615798 33.7492732 0.9375 40.375 C3.14042282 47.89085434 2.37512824 52.85452171 -1.3125 59.6640625 C-5.38596865 65.3027992 -11.41817591 68.19900336 -18 70 C-31.62028151 71.08579032 -43.04392999 68.88749181 -54.125 60.6875 C-54.74375 60.130625 -55.3625 59.57375 -56 59 C-55.43454163 55.04179141 -54.19097652 52.3340947 -52 49 C-48.35396139 50.78581483 -44.84179591 52.77024512 -41.31640625 54.78125 C-36.21243834 57.4666429 -32.3884866 58.29489883 -26.5625 58.3125 C-24.64630859 58.33763672 -24.64630859 58.33763672 -22.69140625 58.36328125 C-18.75961766 57.97634333 -16.34082063 57.07100646 -13 55 C-11.85636888 52.71273777 -11.73498068 51.17147573 -11.625 48.625 C-11.57601562 47.85414063 -11.52703125 47.08328125 -11.4765625 46.2890625 C-12.2541406 42.88860901 -14.1957401 41.97778199 -17 40 C-19.76943017 38.7484701 -19.76943017 38.7484701 -22.74609375 37.81640625 C-24.37321289 37.26049805 -24.37321289 37.26049805 -26.03320312 36.69335938 C-28.29804891 35.94100957 -30.56367313 35.19099902 -32.83007812 34.44335938 C-40.0763694 31.96198842 -45.28258294 29.8418655 -49.8125 23.4375 C-52.37329735 18.1811265 -53.1585669 12.47570069 -51.28125 6.84375 C-48.17510268 0.13046386 -43.70403493 -3.00458014 -37 -6 C-24.71939575 -10.07480004 -10.55305951 -6.65301578 0 0 Z " fill="#80B85D" transform="translate(662,941)"/>
<path d="M0 0 C3.63 0 7.26 0 11 0 C11.01458252 1.47275391 11.02916504 2.94550781 11.04418945 4.46289062 C11.10235272 9.94978584 11.179585 15.43627841 11.26245117 20.92285156 C11.29561573 23.29322758 11.32367378 25.66368095 11.34643555 28.03417969 C11.38013688 31.45020376 11.43246209 34.8655243 11.48828125 38.28125 C11.49467117 39.33364868 11.5010611 40.38604736 11.50764465 41.47033691 C11.63424467 47.86893563 11.8745335 54.46798922 16.34516907 59.5201416 C21.90646634 64.44537232 27.02526808 65.40494705 34.2109375 65.25 C39.42566863 64.78257312 43.42106093 63.49359102 47.3125 59.8125 C51.76829131 52.38618115 52.45903725 45.99612661 52.51171875 37.5 C52.52966995 36.42371338 52.54762115 35.34742676 52.56611633 34.23852539 C52.61998001 30.82572257 52.65403865 27.41305769 52.6875 24 C52.72069415 21.67576216 52.75518573 19.35154246 52.79101562 17.02734375 C52.87569296 11.3516624 52.94261843 5.67602028 53 0 C56.63 0 60.26 0 64 0 C64.12440806 7.18580956 64.21472161 14.37098013 64.2746582 21.55761719 C64.29966702 23.99783258 64.33368527 26.43797409 64.37719727 28.87792969 C64.43844959 32.40318117 64.46634755 35.92743495 64.48828125 39.453125 C64.51408768 40.5286261 64.5398941 41.6041272 64.56648254 42.71221924 C64.56991225 52.15863289 62.16225398 60.88739243 55.6875 68 C46.9513431 75.82057714 37.26094582 76.69851923 25.99609375 76.17919922 C19.04159044 75.55485902 12.5728851 72.62396865 7.5 67.84375 C2.49029933 61.68599293 -0.13263272 54.6446797 -0.11352539 46.77246094 C-0.11344986 45.73168396 -0.11337433 44.69090698 -0.11329651 43.61859131 C-0.10813522 42.50179993 -0.10297394 41.38500854 -0.09765625 40.234375 C-0.0962413 39.08584045 -0.09482635 37.93730591 -0.09336853 36.75396729 C-0.08777143 33.08595169 -0.07521944 29.41799715 -0.0625 25.75 C-0.05748463 23.26302171 -0.05292178 20.77604247 -0.04882812 18.2890625 C-0.03780295 12.19268481 -0.02054027 6.09635276 0 0 Z " fill="#7FB85D" transform="translate(1322,935)"/>
<path d="M0 0 C16.5 0 33 0 50 0 C50 3.3 50 6.6 50 10 C37.13 10 24.26 10 11 10 C11 17.92 11 25.84 11 34 C22.55 34 34.1 34 46 34 C46 37.3 46 40.6 46 44 C34.45 44 22.9 44 11 44 C11 54.23 11 64.46 11 75 C7.37 75 3.74 75 0 75 C0 50.25 0 25.5 0 0 Z " fill="#7FB85C" transform="translate(1624,935)"/>
<path d="M0 0 C16.5 0 33 0 50 0 C50 3.3 50 6.6 50 10 C37.13 10 24.26 10 11 10 C11 17.92 11 25.84 11 34 C22.55 34 34.1 34 46 34 C46 37.3 46 40.6 46 44 C34.45 44 22.9 44 11 44 C11 54.23 11 64.46 11 75 C7.37 75 3.74 75 0 75 C0 50.25 0 25.5 0 0 Z " fill="#7FB85C" transform="translate(1168,935)"/>
<path d="M0 0 C19.47 0 38.94 0 59 0 C59 3.3 59 6.6 59 10 C51.08 10 43.16 10 35 10 C35 31.45 35 52.9 35 75 C31.37 75 27.74 75 24 75 C24 53.55 24 32.1 24 10 C16.08 10 8.16 10 0 10 C0 6.7 0 3.4 0 0 Z " fill="#7EB75B" transform="translate(360,935)"/>
<path d="M0 0 C6.2184375 -0.0928125 6.2184375 -0.0928125 12.5625 -0.1875 C13.85615479 -0.21481201 15.14980957 -0.24212402 16.48266602 -0.27026367 C24.51784941 -0.32825017 29.56334203 0.22142547 35.9375 5.375 C39.53702483 10.11874465 38.74147654 16.40327806 38 22 C35.8609549 27.30111178 32.75493212 29.01985396 27.73461914 31.17749023 C22.54627791 32.73802247 17.30419712 32.40976731 11.9375 32.25 C7.998125 32.1675 4.05875 32.085 0 32 C0 21.44 0 10.88 0 0 Z " fill="#FDFEFD" transform="translate(1557,945)"/>
<path d="M0 0 C6.2184375 -0.0928125 6.2184375 -0.0928125 12.5625 -0.1875 C13.85615479 -0.21481201 15.14980957 -0.24212402 16.48266602 -0.27026367 C24.51784941 -0.32825017 29.56334203 0.22142547 35.9375 5.375 C39.53702483 10.11874465 38.74147654 16.40327806 38 22 C35.8609549 27.30111178 32.75493212 29.01985396 27.73461914 31.17749023 C22.54627791 32.73802247 17.30419712 32.40976731 11.9375 32.25 C7.998125 32.1675 4.05875 32.085 0 32 C0 21.44 0 10.88 0 0 Z " fill="#FDFEFD" transform="translate(917,945)"/>
<path d="M0 0 C3.980625 -0.061875 7.96125 -0.12375 12.0625 -0.1875 C13.92467163 -0.22846802 13.92467163 -0.22846802 15.82446289 -0.27026367 C22.754662 -0.32231152 28.32024194 -0.24247739 33.7421875 4.53515625 C37.43358654 9.51218048 38.79927983 12.74809886 38 19 C36.42146495 23.60474215 34.42787119 27.6558329 30 30 C24.03943463 32.68422811 18.02034308 32.22217275 11.625 32.125 C7.78875 32.08375 3.9525 32.0425 0 32 C0 21.44 0 10.88 0 0 Z " fill="#FDFDFC" transform="translate(1416,945)"/>
<path d="M0 0 C3.980625 -0.061875 7.96125 -0.12375 12.0625 -0.1875 C13.92467163 -0.22846802 13.92467163 -0.22846802 15.82446289 -0.27026367 C22.754662 -0.32231152 28.32024194 -0.24247739 33.7421875 4.53515625 C37.43358654 9.51218048 38.79927983 12.74809886 38 19 C36.42146495 23.60474215 34.42787119 27.6558329 30 30 C24.03943463 32.68422811 18.02034308 32.22217275 11.625 32.125 C7.78875 32.08375 3.9525 32.0425 0 32 C0 21.44 0 10.88 0 0 Z " fill="#FDFDFC" transform="translate(690,945)"/>
<path d="M0 0 C8.19054152 5.86226576 14.66894571 14.49434333 16.49609375 24.52734375 C17.63120851 34.72918764 15.67928921 44.44728796 9.68359375 52.90234375 C3.20077457 60.71414086 -4.3300674 65.9129322 -14.50390625 67.52734375 C-26.50972725 68.49863696 -36.16845882 66.33695885 -45.5 58.5078125 C-53.41363869 50.68673099 -56.61623061 41.99405167 -56.87890625 31.02734375 C-56.61025592 19.82238611 -53.46747214 12.57733813 -45.6171875 4.61328125 C-32.60339344 -7.40338517 -15.48337372 -9.10644601 0 0 Z M-44.50390625 8.52734375 C-50.98943887 17.11240577 -53.5823073 25.82628713 -52.50390625 36.52734375 C-50.28627131 46.579543 -44.68721566 53.47040608 -36.50390625 59.52734375 C-29.55076081 63.6013635 -22.45328762 64.68306923 -14.50390625 63.52734375 C-4.20221519 60.55691749 2.96110861 55.72054421 8.453125 46.5546875 C12.79242201 38.11987421 13.16157484 28.06874223 10.43359375 18.9921875 C6.55519782 10.65574408 1.21678333 5.05973063 -7.06640625 1.08984375 C-19.86023978 -3.49066455 -34.83340134 -1.18387908 -44.50390625 8.52734375 Z " fill="#433F40" transform="translate(2125.50390625,547.47265625)"/>
<path d="M0 0 C0.99 0 1.98 0 3 0 C4.82421875 1.96875 4.82421875 1.96875 6.6875 4.5 C7.31011719 5.3353125 7.93273438 6.170625 8.57421875 7.03125 C9.04472656 7.6809375 9.51523438 8.330625 10 9 C11.11375 7.88625 11.11375 7.88625 12.25 6.75 C14.5 4.5 16.75 2.25 19 0 C19.99 0.33 20.98 0.66 22 1 C22 8.59 22 16.18 22 24 C20.68 24.33 19.36 24.66 18 25 C16.12175109 23.12175109 16.60897603 19.96064724 16.4375 17.4375 C16.31181641 15.64119141 16.31181641 15.64119141 16.18359375 13.80859375 C16.12300781 12.88175781 16.06242187 11.95492187 16 11 C14.68 12.65 13.36 14.3 12 16 C10.1875 15.75 10.1875 15.75 8 15 C7.01 13.68 6.02 12.36 5 11 C4.67 15.29 4.34 19.58 4 24 C2.68 24.33 1.36 24.66 0 25 C-1.68516954 23.31483046 -1.13008019 21.21232212 -1.1328125 18.90625 C-1.13474609 17.36130859 -1.13474609 17.36130859 -1.13671875 15.78515625 C-1.13285156 14.70105469 -1.12898438 13.61695313 -1.125 12.5 C-1.12886719 11.41589844 -1.13273437 10.33179688 -1.13671875 9.21484375 C-1.13542969 8.18488281 -1.13414062 7.15492188 -1.1328125 6.09375 C-1.13168457 5.14177734 -1.13055664 4.18980469 -1.12939453 3.20898438 C-1 1 -1 1 0 0 Z " fill="#484445" transform="translate(2106,567)"/>
<path d="M0 0 C6.6 0 13.2 0 20 0 C19.67 1.65 19.34 3.3 19 5 C16.69 5 14.38 5 12 5 C12 11.27 12 17.54 12 24 C10.68 24.33 9.36 24.66 8 25 C8 18.07 8 11.14 8 4 C5.03 4 2.06 4 -1 4 C-0.67 2.68 -0.34 1.36 0 0 Z " fill="#403C3D" transform="translate(2081,567)"/>
<path d="M0 0 C-2.09782787 2.09782787 -3.3799207 2.6509396 -6.125 3.625 C-6.84945313 3.88539063 -7.57390625 4.14578125 -8.3203125 4.4140625 C-9.15175781 4.70410156 -9.15175781 4.70410156 -10 5 C-9.67 3.68 -9.34 2.36 -9 1 C-5.92677456 0.08941469 -3.19902639 -0.08886184 0 0 Z " fill="#DDEBD4" transform="translate(1208,432)"/>
<path d="M0 0 C3.3 0.33 6.6 0.66 10 1 C9.01 2.485 9.01 2.485 8 4 C5.36 3.01 2.72 2.02 0 1 C0 0.67 0 0.34 0 0 Z " fill="#E5F0DF" transform="translate(954,460)"/>
</svg>
